<svg xmlns="http://www.w3.org/2000/svg" viewBox="0 0 180.74 204.87"><defs><style>.cls-1{fill:#1d1d1b;}</style></defs><title>Recurso 1tarjeta</title><g id="Capa_2" data-name="Capa 2"><g id="Capa_3" data-name="Capa 3"><rect class="cls-1" x="88.56" y="2.28" width="3.73" height="3.73"/><path class="cls-1" d="M92.29,93.61H88.56V86.1h3.73Zm0-12.51H88.56V73.59h3.73Zm0-12.52H88.56v-7.5h3.73Zm0-12.51H88.56V48.56h3.73Zm0-12.51H88.56V36.05h3.73Zm0-12.52H88.56V23.53h3.73Zm0-12.51H88.56V11h3.73Z"/><path class="cls-1" d="M88.08,105.81l-1.83-3.26,2.31-1.29V98.62h3.73v3.73a1.88,1.88,0,0,1-1,1.63Z"/><path class="cls-1" d="M11,149l-1.83-3.26,6.61-3.7,1.82,3.26Zm11-6.17-1.83-3.25,6.61-3.71,1.83,3.26Zm11-6.16-1.83-3.26,6.61-3.7,1.82,3.25Zm11-6.17-1.83-3.26,6.61-3.7,1.82,3.26Zm11-6.17-1.83-3.26,6.61-3.7,1.82,3.26Zm11-6.17-1.83-3.25,6.61-3.71,1.82,3.26Zm11-6.17-1.83-3.25,6.61-3.7,1.82,3.25Z"/><rect class="cls-1" x="2.2" y="148.86" width="3.73" height="3.73" transform="translate(-73.14 21.21) rotate(-29.25)"/><path class="cls-1" d="M177.3,153.14c-.09-.06-.56-.37-3-1.79l1.87-3.23a37.27,37.27,0,0,1,3.4,2l-2.26,3,1.13-1.49Z"/><path class="cls-1" d="M169.9,148.86l-6.59-3.73,1.83-3.26,6.61,3.74Zm-11-6.21-6.61-3.7,1.83-3.26,6.61,3.71Zm-11-6.17-6.62-3.7,1.82-3.26,6.62,3.7Zm-11-6.16-6.62-3.69,1.82-3.27,6.62,3.7Zm-11-6.15-6.63-3.69,1.82-3.26,6.62,3.68Zm-11-6.15-6.63-3.68,1.82-3.27,6.62,3.69Zm-11-6.14L97.1,108.2l1.82-3.27,6.63,3.69Z"/><rect class="cls-1" x="90.19" y="101.39" width="3.73" height="3.73" transform="translate(-42.9 133.66) rotate(-60.98)"/><rect class="cls-1" x="44.58" y="26.66" width="3.73" height="3.73" transform="matrix(1, -0.01, 0.01, 1, -0.25, 0.42)"/><path class="cls-1" d="M44.93,68.2l-.07-7.55,3.74,0,.07,7.56Zm-.11-12.59-.07-7.56,3.74,0,.06,7.55ZM44.71,43l-.07-7.56,3.73,0L48.44,43Z"/><path class="cls-1" d="M44.56,80.44l-1.85-3.25L45,75.88l0-2.64,3.73,0,0,3.73a1.84,1.84,0,0,1-.94,1.64Z"/><path class="cls-1" d="M11.07,99.57,9.22,96.33l6.69-3.83,1.86,3.24Zm11.16-6.38L20.38,90l6.7-3.83,1.85,3.25ZM33.4,86.81l-1.86-3.24,6.7-3.83L40.09,83Z"/><rect class="cls-1" x="2.19" y="99.56" width="3.73" height="3.73" transform="translate(-49.79 15.38) rotate(-29.74)"/><rect class="cls-1" x="46.18" y="174.29" width="3.73" height="3.73" transform="translate(-80.71 46.69) rotate(-29.59)"/><path class="cls-1" d="M55,174.36l-1.85-3.25,6.62-3.76,1.85,3.25Zm11-6.27-1.85-3.25,6.62-3.76,1.85,3.25Zm11-6.26-1.85-3.25,6.62-3.76,1.85,3.25Z"/><path class="cls-1" d="M92.75,155.56l-2.33-1.32-2.32,1.32-1.85-3.25,3.25-1.84a1.88,1.88,0,0,1,1.84,0l3.25,1.84Z"/><path class="cls-1" d="M125.84,174.36l-6.62-3.76,1.84-3.25,6.62,3.76Zm-11-6.27-6.62-3.76,1.84-3.25,6.62,3.76Zm-11-6.26-6.62-3.76L99,154.82l6.62,3.76Z"/><rect class="cls-1" x="130.93" y="174.29" width="3.74" height="3.73" transform="translate(-85.97 204.63) rotate(-60.41)"/><rect class="cls-1" x="132.55" y="26.66" width="3.73" height="3.73"/><path class="cls-1" d="M136.28,68h-3.73V60.45h3.73Zm0-12.52h-3.73V47.92h3.73Zm0-12.52h-3.73V35.4h3.73Z"/><rect class="cls-1" x="132.55" y="72.97" width="3.73" height="3.73"/><path class="cls-1" d="M91.6,200.51,61.79,183.27,14.46,155.9,3.61,149.63l1.16,2V51.05l-3.51,2L31.1,70.46,78.35,98l10.89,6.36-1.15-2V202.52c0,3,4.67,3,4.67,0V113.66c0-3.73.23-7.55,0-11.27-.11-1.68-1.43-2.21-2.66-2.93l-5.65-3.29L39.19,69.77l-35-20.41L3.61,49a2.36,2.36,0,0,0-3.51,2v89c0,3.82-.23,7.71,0,11.52.1,1.69,1.35,2.19,2.59,2.91l5.59,3.23L53.56,183.9l35.12,20.31.56.33C91.85,206,94.2,202,91.6,200.51Z"/><path class="cls-1" d="M91.6,204.54l29.81-17.24,47.33-27.37c3.55-2.05,7.24-4,10.69-6.18,1.36-.87,1.31-2,1.31-3.36V51.05a2.36,2.36,0,0,0-3.51-2L147.65,66.28l-47.32,27.6C96.71,96,93,98,89.43,100.23c-1.31.84-1.34,1.92-1.34,3.23v99.06c0,3,4.67,3,4.67,0V102.35l-1.16,2L121.44,87l47.25-27.55,10.9-6.36-3.51-2V151.64l1.15-2-29.81,17.24-47.33,27.36-10.85,6.28C86.64,202,89,206,91.6,204.54Z"/><path class="cls-1" d="M3.61,53.06,33.54,36.47,80.83,10.26l10.77-6H89.24l29.93,16.59,47.29,26.21,10.77,6V49l-29.84,17.4L100.14,94l-10.9,6.36H91.6L61.76,82.94,14.51,55.39,3.61,49c-2.6-1.51-4.95,2.52-2.35,4L31.1,70.46,78.35,98l10.89,6.36a2.37,2.37,0,0,0,2.36,0L121.44,87l47.25-27.55,10.9-6.36a2.35,2.35,0,0,0,0-4L149.53,32.37,102,6c-3.42-1.9-6.8-4-10.31-5.72C90.21-.42,89.22.28,88,1L82.55,4,37.26,29.08,1.83,48.71,1.26,49C-1.37,50.49,1,54.52,3.61,53.06Z"/><path class="cls-1" d="M132.08,76.7V177.08c0,3,4.67,3,4.67,0V76.7c0-3-4.67-3-4.67,0Z"/><path class="cls-1" d="M1.26,104.37l39,21.65c10.64,5.91,21.13,12.06,31.68,18.13,5.69,3.27,11.31,6.79,17.12,9.85,1.81.95,3.32-.33,4.86-1.21l9.18-5.26c11.37-6.51,22.68-13.14,34.12-19.53l41.27-23,1.11-.62a2.35,2.35,0,0,0,0-4l-13.16-7.55-31.6-18.12L96.77,52.84,63.87,34c-5.33-3.06-10.6-6.32-16-9.2l-.23-.13c-2.61-1.5-5,2.53-2.36,4l13.16,7.55L90,54.34l38.06,21.83L161,95l10.91,6.26c1.68,1,3.35,2.14,5.12,2.93l.23.14v-4L138.42,122c-10.5,5.85-20.9,11.89-31.33,17.87L89.24,150.08H91.6L53.08,127.92c-10.39-6-20.91-11.72-31.39-17.54l-18.08-10c-2.63-1.46-5,2.57-2.35,4Z"/><path class="cls-1" d="M48.76,177.08V76.7l-1.15,2,29.88-17,47.27-26.88,10.83-6.16c2.62-1.49.27-5.52-2.35-4l-29.89,17L56.09,68.52,45.25,74.69a2.34,2.34,0,0,0-1.16,2V177.08c0,3,4.67,3,4.67,0Z"/></g></g></svg>